<?xml version="1.0" encoding="UTF-8" standalone="no"?>
<!-- Created with Inkscape (http://www.inkscape.org/) -->

<svg
   width="54.045971mm"
   height="10.532837mm"
   viewBox="0 0 54.045971 10.532837"
   version="1.1"
   id="svg12"
   xml:space="preserve"
   xmlns="http://www.w3.org/2000/svg"
   xmlns:svg="http://www.w3.org/2000/svg"><defs
     id="defs9" /><g
     id="layer1"
     transform="translate(-6.2990114,-198.31681)"><g
       id="g507"
       transform="translate(64.488947,11.890494)"><g
         id="g965"><path
           style="fill:#000000;stroke-width:0.0879999"
           d="m -57.721964,194.58486 c -0.5567,0.30918 -0.7436,0.74081 0.15757,0.94543 l 6.91737,-1.11875 5.81438,-0.67756 6.40727,-0.49883 5.99581,-0.39662 4.36248,-0.25482 3.51383,-0.17333 5.85848,-0.23095 5.675719,-0.1157 5.6883197,-0.063 2.72598,0.0315 c 0.69395,-0.2339 0.5501,-0.70177 -0.0722,-0.86944 l -2.14957,-0.0287 -6.1767897,0.0473 -8.671159,0.26899 -10.86271,0.52268 -12.15367,0.9101 -10.12529,1.18942 z"
           id="path427-0" /><path
           style="fill:#ff5555;stroke-width:0.0879999"
           d="m -36.335274,191.81951 8.06763,-0.34666 6.23982,-0.31514 4.475019,-0.0945 c -4.888199,-8.24754 -18.511429,-3.8909 -18.782469,0.7563 z"
           id="path500" /><path
           style="fill:#ff5555;stroke-width:0.0879999"
           d="m -35.988617,193.33219 18.530349,-0.8824 c -5.200959,7.2631 -16.451549,4.37687 -18.530349,0.8824 z"
           id="path502" /></g></g></g></svg>
