<?xml version="1.0" encoding="UTF-8" standalone="no"?>
<!-- Created with Inkscape (http://www.inkscape.org/) -->

<svg
   width="53.516994mm"
   height="7.9130554mm"
   viewBox="0 0 53.516994 7.9130554"
   version="1.1"
   id="svg12"
   xml:space="preserve"
   xmlns="http://www.w3.org/2000/svg"
   xmlns:svg="http://www.w3.org/2000/svg"><defs
     id="defs9" /><g
     id="layer1"
     transform="translate(-7.6673991,-233.9138)"><g
       id="g880"
       transform="translate(-49.715479,109.78762)"><path
         style="fill:#000000;stroke-width:0.0879999"
         d="m 57.451722,127.57694 c -0.214131,0.40744 0.09534,0.65131 0.595577,0.93506 10.79004,6.1205 44.042671,3.84008 52.521631,-3.48769 0.59898,-0.29888 0.26666,-0.8957 -0.0722,-0.86944 l -2.14957,-0.0287 -6.17679,0.0473 -8.671162,0.26899 -10.862708,0.52268 -12.153672,0.9101 -10.125291,1.18942 z"
         id="path427-8" /><path
         style="fill:#ffffff;stroke-width:0.146741"
         d="m 64.154193,127.28836 6.946994,-0.82365 c 0.01321,0.20218 0.0676,0.37008 -0.157001,0.77153 -1.526373,2.41515 -4.448348,2.12902 -6.509931,0.85311 -0.186557,-0.29999 -0.401752,-0.48921 -0.280058,-0.80099 z"
         id="path599" /><path
         style="fill:#ffffff;stroke-width:0.146741"
         d="m 72.039043,126.39196 6.982305,-0.4319 c 0.0018,0.2026 0.04669,0.37329 -0.200115,0.76148 -1.6597,2.32555 -4.560975,1.87565 -6.547589,0.48588 -0.169402,-0.31 -0.373622,-0.51101 -0.234597,-0.81546 z"
         id="path599-5" /><path
         style="fill:#ffffff;stroke-width:0.146741"
         d="m 80.022415,125.93397 6.982305,-0.4319 c 0.0018,0.2026 0.04669,0.37329 -0.200115,0.76148 -1.6597,2.32555 -4.560975,1.87565 -6.547589,0.48588 -0.169402,-0.31 -0.373622,-0.51101 -0.234597,-0.81546 z"
         id="path599-5-8" /><path
         style="fill:#ffffff;stroke-width:0.146741"
         d="m 88.073099,125.36923 6.993038,-0.19115 c -0.0052,0.20254 0.03381,0.37468 -0.226225,0.75413 -1.738816,2.26701 -4.622873,1.71744 -6.560439,0.26007 -0.158624,-0.31565 -0.355799,-0.52357 -0.20637,-0.82305 z"
         id="path599-5-8-1" /><path
         style="fill:#ffffff;stroke-width:0.146741"
         d="m 96.022569,125.17124 6.993041,-0.19115 c -0.005,0.20254 0.0338,0.37468 -0.22623,0.75413 -1.73881,2.26701 -4.622871,1.71744 -6.560437,0.26007 -0.158624,-0.31565 -0.355799,-0.52357 -0.20637,-0.82305 z"
         id="path599-5-8-1-6" /></g></g></svg>
