<?xml version="1.0" encoding="UTF-8" standalone="no"?>
<!-- Created with Inkscape (http://www.inkscape.org/) -->

<svg
   width="22.404732mm"
   height="9.375885mm"
   viewBox="0 0 22.404732 9.375885"
   version="1.1"
   id="svg245"
   xml:space="preserve"
   xmlns="http://www.w3.org/2000/svg"
   xmlns:svg="http://www.w3.org/2000/svg"><defs
     id="defs242" /><g
     id="layer1"
     transform="translate(-93.85483,-151.50767)"><path
       style="fill:#000000;stroke-width:0.129921"
       d="m 93.899336,151.51398 0.241933,0.004 2.082298,-0.0103 c -0.03483,1.13288 -0.254832,2.2349 0.03293,3.42155 l 0.230289,0.5593 0.690885,0.69089 1.348872,0.49348 1.118596,-0.0659 0.690871,-0.69088 0.29609,-0.0988 0.75669,0.0329 0.0659,1.71078 1.28307,1.21728 1.77659,0.29609 1.28307,-0.0659 1.64496,-0.29609 1.1186,-0.49349 0.52638,-0.78958 0.0329,-1.57918 0.82249,-0.0329 0.65799,0.5264 0.39479,0.23029 0.61772,0.0446 1.11858,-0.2632 0.5264,-0.19739 0.69089,-0.95408 0.0659,-0.9541 0.0329,-1.01988 0.0329,-1.51337 2.17874,-0.0117 -0.0659,3.45444 -0.26319,1.11858 -0.3948,0.7238 -0.82249,0.69088 -0.52639,0.19739 -0.69088,0.29611 -1.38179,0.16449 -1.18438,0.0329 -0.49349,-0.0659 -0.3948,1.05279 -0.98697,0.78958 -1.31598,0.46059 -1.38178,0.16451 -1.67788,0.0986 -1.11857,-0.0986 -1.21728,-0.329 -0.5593,-0.23029 -0.4935,-0.23031 -0.75669,-0.55929 -0.46057,-0.69089 -0.0659,-0.0988 -0.230301,-0.19739 h -1.414664 l -1.447591,-0.2303 -1.085684,-0.4606 -0.822471,-0.55928 -0.7896,-0.9541 -0.197391,-0.55928 -0.164498,-1.01988 z"
       id="path2321" /></g></svg>
