<?xml version="1.0" encoding="UTF-8" standalone="no"?>
<!-- Created with Inkscape (http://www.inkscape.org/) -->

<svg
   width="25.196754mm"
   height="8.8020935mm"
   viewBox="0 0 25.196754 8.8020935"
   version="1.1"
   id="svg245"
   xml:space="preserve"
   xmlns="http://www.w3.org/2000/svg"
   xmlns:svg="http://www.w3.org/2000/svg"><defs
     id="defs242" /><g
     id="layer1"
     transform="translate(-94.129008,-153.15731)"><path
       style="fill:#000000;stroke-width:0.16474"
       d="m 94.129009,153.61622 v 0 l 2.544728,-0.45888 1.084623,1.75209 1.543502,1.75209 1.418348,0.95949 1.20979,0.58402 1.58524,0.62575 1.79378,0.54231 2.83674,0.0417 1.83552,-0.41716 1.58523,-0.66746 1.33493,-0.62575 1.46007,-1.16806 1.16806,-1.20977 1.04292,-1.29321 0.66745,-0.87606 2.08583,1.37664 -2.25268,3.0036 -2.83674,2.12755 -2.62811,1.41835 -3.25391,0.7509 -1.91895,0.12505 -2.37783,-0.0835 -2.7533,-0.87605 -1.2932,-0.66746 -1.668667,-0.91776 -2.210983,-1.75209 -1.543493,-1.87725 z"
       id="path3756" /></g></svg>
