<?xml version="1.0" encoding="UTF-8" standalone="no"?>
<!-- Created with Inkscape (http://www.inkscape.org/) -->

<svg
   width="23.393471mm"
   height="9.8556976mm"
   viewBox="0 0 23.393471 9.8556976"
   version="1.1"
   id="svg245"
   xml:space="preserve"
   xmlns="http://www.w3.org/2000/svg"
   xmlns:svg="http://www.w3.org/2000/svg"><defs
     id="defs242" /><g
     id="layer1"
     transform="translate(-93.54587,-151.06993)"><path
       style="fill:#000000;stroke-width:0.154908"
       d="m 93.63924,160.68975 h 0.274575 l 2.118248,-0.0785 0.35305,-2.07903 0.74532,-1.21603 0.745303,-0.98068 0.588405,-0.5884 0.980678,-0.7453 1.176791,-0.62765 1.64754,-0.54916 1.25525,-0.19614 2.31438,-0.0785 1.42627,0.0945 1.62506,0.25917 1.8765,0.88746 1.29383,1.09768 1.05141,1.17681 0.74399,1.46616 c 0.53317,2.08233 0.61287,1.53081 0.61287,2.31438 l 2.47063,0.0791 -0.27392,-2.50854 -0.7061,-2.1209 -0.82376,-1.17681 -0.62763,-0.5884 c -1.5144,-1.28847 -2.75228,-2.09401 -4.80044,-2.84813 l -1.87518,-0.40835 -2.49575,-0.20456 -2.34524,0.15757 -1.82052,0.32218 -1.961356,0.47072 -1.216031,0.62765 -1.286108,0.9324 -1.247544,1.30924 -0.982005,1.27973 -0.65914,1.53954 c -0.298006,1.29804 -0.342186,1.67815 -0.179376,2.98079 z"
       id="path2496" /></g></svg>
