<?xml version="1.0" encoding="UTF-8" standalone="no"?>
<!-- Created with Inkscape (http://www.inkscape.org/) -->

<svg
   width="99.951744mm"
   height="68.154175mm"
   viewBox="0 0 99.951744 68.154175"
   version="1.1"
   id="svg12"
   xml:space="preserve"
   xmlns="http://www.w3.org/2000/svg"
   xmlns:svg="http://www.w3.org/2000/svg"><defs
     id="defs9" /><g
     id="layer1"
     transform="translate(-103.35055,-372.27401)"><g
       id="g1300"
       transform="matrix(1.0763676,0,0,1.0576447,76.447926,325.12928)"><path
         style="fill:#ffd42a;stroke-width:0.0879999"
         d="M 84.561153,76.175365 C 73.730777,98.87109 50.664249,100.37809 33.443403,109.01478 29.2101,106.282 23.724238,95.888892 25.256882,84.896787 c 0.893249,-8.423963 1.815892,-16.073428 10.97847,-25.009613 18.600544,-9.713046 25.819252,-9.591257 42.784327,-4.110231 12.274387,-6.387234 35.538891,3.212744 37.146001,20.599148 l 1.68846,19.248383 C 104.57339,88.284372 94.159837,93.334299 84.561153,76.175365 Z"
         id="path1294" /><path
         style="fill:#ffd42a;stroke-width:0.0879999"
         d="M 47.952115,66.525114 C 38.803755,62.571522 37.428394,60.348457 29.547957,65.343196 l 0.337691,-14.689555 10.721688,3.630176 -5.656324,-7.007087 5.065365,-2.701526 c 5.5798,0.986883 8.913978,10.448816 7.935738,21.94991 z"
         id="path1296" /></g></g></svg>
