<?xml version="1.0" encoding="UTF-8" standalone="no"?>
<!-- Created with Inkscape (http://www.inkscape.org/) -->

<svg
   width="108.10577mm"
   height="85.624527mm"
   viewBox="0 0 108.10577 85.624527"
   version="1.1"
   id="svg5"
   xml:space="preserve"
   inkscape:export-filename="mouth1.svg"
   inkscape:export-xdpi="96"
   inkscape:export-ydpi="96"
   xmlns:inkscape="http://www.inkscape.org/namespaces/inkscape"
   xmlns:sodipodi="http://sodipodi.sourceforge.net/DTD/sodipodi-0.dtd"
   xmlns="http://www.w3.org/2000/svg"
   xmlns:svg="http://www.w3.org/2000/svg"><sodipodi:namedview
     id="namedview7"
     pagecolor="#ffffff"
     bordercolor="#000000"
     borderopacity="0.25"
     inkscape:showpageshadow="2"
     inkscape:pageopacity="0.0"
     inkscape:pagecheckerboard="0"
     inkscape:deskcolor="#d1d1d1"
     inkscape:document-units="mm"
     showgrid="false"
     inkscape:zoom="1.0494603"
     inkscape:cx="1495.5305"
     inkscape:cy="114.82092"
     inkscape:window-width="1920"
     inkscape:window-height="991"
     inkscape:window-x="1991"
     inkscape:window-y="-9"
     inkscape:window-maximized="1"
     inkscape:current-layer="g1051" /><defs
     id="defs2" /><g
     inkscape:label="Layer 1"
     inkscape:groupmode="layer"
     id="layer1"
     transform="translate(-407.37788,33.203528)"><g
       id="layer1-4"
       transform="translate(-62.027388,-160.17619)"><path
         style="fill:#502d16;stroke-width:0.210762"
         d="m 79.947831,247.64171 c 0.91495,-3.17942 2.83654,-3.33891 4.49472,-4.28863 1.1577,-4.727 3.5391,-9.48686 5.56956,-13.28437 l 4.98329,6.17149 c 1.89053,-9.79085 4.19032,-15.51995 9.087139,-23.63991 l 0.87943,-0.20915 c 13.68904,11.26083 27.17083,17.91219 44.45872,17.25923 -5.14344,-5.62058 -9.24207,-10.3714 -9.67343,-16.73621 7.45439,5.64784 9.39521,10.52924 31.85395,11.61074 -4.56404,-2.52986 -6.03467,-3.70663 -4.98329,-7.42667 4.38108,3.12717 5.90519,5.08211 10.65055,5.54381 -4.26614,-5.62937 -5.64128,-8.43766 -6.54669,-13.07517 l -2.05192,-6.06687 -2.93138,-4.49786 -4.59242,-6.06687 -3.81074,-3.34725 -3.90846,-2.30122 -5.17872,-2.30123 -4.10387,-1.56902 c 2.90941,-1.442 4.05198,-3.91666 6.15583,-6.27608 l -5.86269,2.19663 -3.81076,1.04602 -4.59243,1.35981 -4.2016,1.15062 -5.9604,0.94141 -5.17872,0.4184 -3.71303,0.52301 h -0.19542 c 0.87438,-3.75215 1.7593,-5.12292 1.07485,-8.78651 -4.09193,6.93112 -7.81628,9.43119 -15.43843,12.02915 l -5.374149,2.71963 -6.05809,3.24264 -6.05811,3.55644 -4.29933,2.61504 c -6.465319,5.95059 -8.110399,12.01206 -8.891728,19.87423 v 8.57732 l 1.56337,10.77395 2.24737,6.38068 2.247388,5.23006 2.63819,4.52958 -0.0977,-3.37898 -0.19541,-2.61502 z"
         id="path1129"
         inkscape:export-filename="hair4.svg"
         inkscape:export-xdpi="96"
         inkscape:export-ydpi="96" /><path
         style="fill:#000000;stroke-width:0.103137"
         d="m 282.77368,342.91645 c 1.78806,1.00489 3.4672,2.40357 6.25345,-0.2004 l -0.34467,-14.23191 c 0.0902,-1.11263 1.27547,-2.54637 3.27597,-3.10184 l 5.27634,-2.50488 c 0.93745,-0.37107 1.70392,-0.97467 0.68396,-4.00781 l -2.0519,-9.31814 c -0.92552,-2.75527 -0.12862,-4.24744 3.71297,-3.50683 l 39.47484,11.32205 c 1.45853,0.67781 2.63392,0.41182 3.61528,-0.50097 l 27.55422,-24.24722 c 1.69589,-1.79129 2.563,-3.51233 -0.39084,-4.90957 l -39.67026,-14.52829 c -2.20049,-1.37702 -4.48002,-1.44999 -6.8397,-0.20039 l -5.47177,2.50488 -2.9313,-4.90956 6.54657,-3.40664 c 0.0781,-0.62206 0.52952,-1.42474 -1.75878,-0.90175 l -5.76489,2.10409 -7.71908,-6.51268 c -1.79575,-0.99612 -2.74656,-2.47507 -6.05802,-2.60507 l -18.98559,3.61557 14.29551,4.40004 10.35725,5.10995 -3.32214,1.70332 c -0.83791,0.88159 -1.57296,1.72294 1.17253,1.20234 l 4.49465,-1.60312 4.59237,3.00585 c 0.29792,0.38281 0.0707,0.6781 -0.58626,0.90176 l -41.13591,17.43395 c -2.62839,1.53065 -2.90976,4.14455 -2.63816,7.01365 l 2.73588,23.24528 c 0.42024,2.06169 1.09388,3.78184 3.32214,3.40663 l 3.71297,-0.50097 c 1.80836,-0.0341 3.19517,0.60627 3.41986,3.10604 z"
         id="path1197"
         inkscape:export-filename="hair3.svg"
         inkscape:export-xdpi="96"
         inkscape:export-ydpi="96" /><path
         style="fill:#ffffff;stroke-width:0.0879999"
         d="m 324.89863,176.86302 4.27851,32.44537 0.98049,3.74369 2.05012,3.83283 2.85234,2.58494 3.92197,2.13926 -1.51531,2.85234 -1.5153,3.74369 -0.71309,3.20889 -0.80222,4.18937 -0.17827,2.22839 -1.82962,0.16429 -0.66968,0.35453 -0.85088,0.71695 -0.32302,0.69331 0.008,2.50538 0.21272,0.74059 0.6618,0.85088 1.37875,1.2133 3.02536,1.7254 h 5.68044 l 0.0788,5.6962 0.0867,1.11087 0.56725,1.29208 0.66968,0.93755 1.15815,0.42544 2.52901,0.37817 3.17088,0.33695 3.1866,0.22284 3.63228,-0.15599 4.05567,-0.17827 0.62444,-0.0601 0.64604,-0.22848 0.46484,-0.37029 0.50422,-0.51998 0.26787,-0.6618 v -1.09512 l 0.0441,-1.37619 0.4234,-2.17268 0.20055,-0.60167 h 8.07792 l 0.12529,0.0616 0.10242,0.44908 v 0.45696 l 0.0236,0.92967 v 2.59204 l 0.15757,0.41756 0.27575,0.40181 0.39392,0.42544 0.37818,0.34666 0.21272,0.16545 0.53574,0.23635 0.48847,0.11818 0.65392,0.008 h 3.15142 3.58474 2.63932 l 1.52844,-0.0158 1.37087,-0.0867 0.7327,-0.0945 0.43332,-0.17333 0.46484,-0.26787 0.52785,-0.47271 0.65392,-0.81937 0.46483,-1.25269 0.24424,-1.07148 0.12606,-1.01634 0.0315,-1.64661 0.008,-3.04113 2.04842,-0.14969 1.29997,-0.10242 1.11087,-0.19696 0.89816,-0.39393 0.96118,-0.71695 0.63816,-0.63816 0.41757,-0.70907 0.17332,-0.85089 0.0788,-0.6618 0.0394,-0.51998 0.0315,-0.5121 -0.0236,-0.56726 -0.14181,-0.63029 -0.17333,-0.61452 -0.0945,-0.51211 -0.10242,-0.55938 -0.35453,-1.22117 -0.46483,-1.62298 -0.46484,-1.6545 -0.4412,-1.57571 -0.6618,-2.30842 -0.63816,-1.55995 -0.37817,-0.86664 -0.25212,-0.63816 -0.0236,-0.37029 0.24423,-0.17333 1.29997,-0.0394 0.56725,-0.11818 1.74116,-0.60664 1.86722,-0.74059 2.37932,-1.01633 2.26114,-1.38663 2.03267,-1.55207 1.08724,-1.24481 1.22905,-1.70177 0.53574,-0.96118 0.69331,-1.67026 0.53574,-1.52844 0.59089,-2.17448 0.38605,-1.81206 0.21273,-1.70177 0.012,-4.68683 v -6.06122 l -0.24512,-3.29802 -0.33426,-3.54315 -0.71308,-4.50134 -1.06963,-5.57098 -1.20333,-6.30634 -1.87184,-7.75481 -2.58494,-6.81887 -1.53759,-2.76321 -1.29246,-1.96098 -1.20334,-1.38161 -1.18104,-1.06962 -1.06963,-0.75765 -1.55987,-0.75766 -1.76043,-0.80222 -1.69359,-0.44568 -1.67129,-0.33426 -2.13925,-0.15598 h -15.5544 l -3.20888,0.28969 -3.40944,0.37882 -6.95258,1.04735 -8.24505,1.84956 -9.35924,2.80778 -7.39826,2.67406 -4.59049,2.16154 -1.40389,1.00278 -1.13648,1.31475 -1.02506,1.53759 -0.80222,2.09469 -0.89135,2.36209 -0.26741,2.3621 -0.0891,2.80777 -0.15599,2.51808 z"
         id="path240" /><g
         id="g1051"
         transform="matrix(1.1534634,0,0,1,-18.52861,-28.236735)"
         inkscape:export-filename="hair1.svg"
         inkscape:export-xdpi="96"
         inkscape:export-ydpi="96"><path
           style="fill:#2b0000;stroke-width:0.100379"
           d="m 445.37682,206.98784 v 0 c -0.77215,19.09285 -10.8069,29.14497 -18.37653,33.84608 1.99798,-7.19363 5.40461,-12.99417 0.43447,-24.53512 -0.84864,-7.52771 -2.98619,-14.48533 4.80521,-28.38193 17.62245,-20.0253 37.32969,-22.29414 60.5678,-20.26782 8.43189,4.74003 16.71774,9.76171 20.30781,17.98695 6.62789,12.3529 2.28301,35.05289 1.5302,38.35432 -2.3228,-15.07785 0.57616,-15.86369 -5.50985,-25.89245 3.73281,4.66852 5.24823,9.92789 4.66429,15.8368 -3.3218,1.15407 -8.92137,3.56579 -12.70121,4.75607 -0.38519,0.12131 -3.40765,-12.41316 -3.79753,-12.29328 -0.51818,0.15934 2.88126,12.33256 2.35482,12.48872 -4.54339,1.34769 -10.61936,2.77576 -15.76744,3.6077 -0.89244,0.14421 -1.56176,-12.80227 -2.5003,-12.6769 -0.50457,0.0674 1.18988,12.85818 0.67104,12.91975 -5.59236,0.66355 -12.6464,0.98014 -20.3543,0.77902 -0.3038,-0.008 -1.46741,-11.10769 -1.77515,-11.11723 -0.48541,-0.015 -0.11789,11.05889 -0.61331,11.03974 -3.13317,-0.1211 -6.46867,-0.32491 -10.03187,-0.6218 -2.83063,-3.20801 -5.17899,-7.06884 -3.90815,-15.82862 z"
           id="path553"
           sodipodi:nodetypes="ccccccccccssssssssscc"
           inkscape:export-filename="hair1.svg"
           inkscape:export-xdpi="96"
           inkscape:export-ydpi="96" /><path
           style="fill:#2b0000;stroke-width:0.0921553"
           d="m 449.20642,174.652 c -3.87143,-22.1791 -25.83351,-10.49283 -23.28551,6.11429 2.71723,10.50894 3.78799,12.05716 0.87015,20.33257 -1.1609,2.68522 -1.92131,9.0594 -3.7747,11.26949 3.88147,-0.45855 4.29315,-1.60036 7.07145,-3.09244 z"
           id="path555"
           sodipodi:nodetypes="cccccc"
           inkscape:export-filename="hair1.svg"
           inkscape:export-xdpi="96"
           inkscape:export-ydpi="96" /><path
           style="fill:#2b0000;stroke-width:0.0921553"
           d="m 489.58838,167.68456 -0.24509,-0.56877 c 2.05603,-17.12366 16.35545,-14.04194 17.64797,-1.70631 -0.21818,10.01563 1.07728,12.15384 6.49541,19.3382 l 2.69622,1.70633 v 0 l -4.16688,-0.14221 -11.76531,-6.96743 z"
           id="path557"
           sodipodi:nodetypes="ccccccccc" /></g></g></g></svg>
