<?xml version="1.0" encoding="UTF-8" standalone="no"?>
<!-- Created with Inkscape (http://www.inkscape.org/) -->

<svg
   width="105.52842mm"
   height="79.528709mm"
   viewBox="0 0 105.52842 79.528709"
   version="1.1"
   id="svg5"
   xml:space="preserve"
   inkscape:export-filename="mouth1.svg"
   inkscape:export-xdpi="96"
   inkscape:export-ydpi="96"
   xmlns:inkscape="http://www.inkscape.org/namespaces/inkscape"
   xmlns:sodipodi="http://sodipodi.sourceforge.net/DTD/sodipodi-0.dtd"
   xmlns="http://www.w3.org/2000/svg"
   xmlns:svg="http://www.w3.org/2000/svg"><sodipodi:namedview
     id="namedview7"
     pagecolor="#ffffff"
     bordercolor="#000000"
     borderopacity="0.25"
     inkscape:showpageshadow="2"
     inkscape:pageopacity="0.0"
     inkscape:pagecheckerboard="0"
     inkscape:deskcolor="#d1d1d1"
     inkscape:document-units="mm"
     showgrid="false" /><defs
     id="defs2" /><g
     inkscape:label="Layer 1"
     inkscape:groupmode="layer"
     id="layer1"
     transform="translate(-9.7126753,-15.81367)"><g
       id="layer1-4"
       transform="translate(-62.027388,-160.17619)"><path
         style="fill:#502d16;stroke-width:0.210762"
         d="m 79.947831,247.64171 c 0.91495,-3.17942 2.83654,-3.33891 4.49472,-4.28863 1.1577,-4.727 3.5391,-9.48686 5.56956,-13.28437 l 4.98329,6.17149 c 1.89053,-9.79085 4.19032,-15.51995 9.087139,-23.63991 l 0.87943,-0.20915 c 13.68904,11.26083 27.17083,17.91219 44.45872,17.25923 -5.14344,-5.62058 -9.24207,-10.3714 -9.67343,-16.73621 7.45439,5.64784 9.39521,10.52924 31.85395,11.61074 -4.56404,-2.52986 -6.03467,-3.70663 -4.98329,-7.42667 4.38108,3.12717 5.90519,5.08211 10.65055,5.54381 -4.26614,-5.62937 -5.64128,-8.43766 -6.54669,-13.07517 l -2.05192,-6.06687 -2.93138,-4.49786 -4.59242,-6.06687 -3.81074,-3.34725 -3.90846,-2.30122 -5.17872,-2.30123 -4.10387,-1.56902 c 2.90941,-1.442 4.05198,-3.91666 6.15583,-6.27608 l -5.86269,2.19663 -3.81076,1.04602 -4.59243,1.35981 -4.2016,1.15062 -5.9604,0.94141 -5.17872,0.4184 -3.71303,0.52301 h -0.19542 c 0.87438,-3.75215 1.7593,-5.12292 1.07485,-8.78651 -4.09193,6.93112 -7.81628,9.43119 -15.43843,12.02915 l -5.374149,2.71963 -6.05809,3.24264 -6.05811,3.55644 -4.29933,2.61504 c -6.465319,5.95059 -8.110399,12.01206 -8.891728,19.87423 v 8.57732 l 1.56337,10.77395 2.24737,6.38068 2.247388,5.23006 2.63819,4.52958 -0.0977,-3.37898 -0.19541,-2.61502 z"
         id="path1129" /><path
         style="fill:#000000;stroke-width:0.103137"
         d="m 170.64103,376.25318 c 1.78806,1.00489 3.4672,2.40357 6.25345,-0.2004 l -0.34467,-14.23191 c 0.0902,-1.11263 1.27547,-2.54637 3.27597,-3.10184 l 5.27634,-2.50488 c 0.93745,-0.37107 1.70392,-0.97467 0.68396,-4.00781 l -2.0519,-9.31814 c -0.92552,-2.75527 -0.12862,-4.24744 3.71297,-3.50683 l 39.47484,11.32205 c 1.45853,0.67781 2.63392,0.41182 3.61528,-0.50097 l 27.55422,-24.24722 c 1.69589,-1.79129 2.563,-3.51233 -0.39084,-4.90957 l -39.67026,-14.52829 c -2.20049,-1.37702 -4.48002,-1.44999 -6.8397,-0.20039 l -5.47177,2.50488 -2.9313,-4.90956 6.54657,-3.40664 c 0.0781,-0.62206 0.52952,-1.42474 -1.75878,-0.90175 l -5.76489,2.10409 -7.71908,-6.51268 c -1.79575,-0.99612 -2.74656,-2.47507 -6.05802,-2.60507 l -18.98559,3.61557 14.29551,4.40004 10.35725,5.10995 -3.32214,1.70332 c -0.83791,0.88159 -1.57296,1.72294 1.17253,1.20234 l 4.49465,-1.60312 4.59237,3.00585 c 0.29792,0.38281 0.0707,0.6781 -0.58626,0.90176 l -41.13591,17.43395 c -2.62839,1.53065 -2.90976,4.14455 -2.63816,7.01365 l 2.73588,23.24528 c 0.42024,2.06169 1.09388,3.78184 3.32214,3.40663 l 3.71297,-0.50097 c 1.80836,-0.0341 3.19517,0.60627 3.41986,3.10604 z"
         id="path1197" /></g></g></svg>
