<?xml version="1.0" encoding="UTF-8" standalone="no"?>
<!-- Created with Inkscape (http://www.inkscape.org/) -->

<svg
   width="87.620544mm"
   height="108.32198mm"
   viewBox="0 0 87.620544 108.32198"
   version="1.1"
   id="svg12"
   xml:space="preserve"
   inkscape:version="1.2.2 (732a01da63, 2022-12-09)"
   sodipodi:docname="drawing-1.svg"
   xmlns:inkscape="http://www.inkscape.org/namespaces/inkscape"
   xmlns:sodipodi="http://sodipodi.sourceforge.net/DTD/sodipodi-0.dtd"
   xmlns="http://www.w3.org/2000/svg"
   xmlns:svg="http://www.w3.org/2000/svg"><sodipodi:namedview
     id="namedview14"
     pagecolor="#ffffff"
     bordercolor="#000000"
     borderopacity="0.25"
     inkscape:showpageshadow="2"
     inkscape:pageopacity="0.0"
     inkscape:pagecheckerboard="0"
     inkscape:deskcolor="#d1d1d1"
     inkscape:document-units="mm"
     showgrid="false"
     inkscape:lockguides="true"
     inkscape:zoom="0.39175368"
     inkscape:cx="-224.63095"
     inkscape:cy="1019.7735"
     inkscape:window-width="1920"
     inkscape:window-height="991"
     inkscape:window-x="1991"
     inkscape:window-y="-9"
     inkscape:window-maximized="1"
     inkscape:current-layer="layer1" /><defs
     id="defs9" /><g
     inkscape:label="Layer 1"
     inkscape:groupmode="layer"
     id="layer1"
     transform="translate(197.4211,-173.43882)"><path
       style="fill:#ffffff;stroke-width:0.0879999"
       d="m -197.30986,201.42732 4.27851,32.44537 0.98049,3.74369 2.05012,3.83283 2.85234,2.58494 3.92197,2.13926 -1.51531,2.85234 -1.5153,3.74369 -0.71309,3.20889 -0.80222,4.18937 -0.17827,2.22839 -1.82962,0.16429 -0.66968,0.35453 -0.85088,0.71695 -0.32302,0.69331 0.008,2.50538 0.21272,0.74059 0.6618,0.85088 1.37875,1.2133 3.02536,1.7254 h 5.68044 l 0.0788,5.6962 0.0867,1.11087 0.56725,1.29208 0.66968,0.93755 1.15815,0.42544 2.52901,0.37817 3.17088,0.33695 3.1866,0.22284 3.63228,-0.15599 4.05567,-0.17827 0.62444,-0.0601 0.64604,-0.22848 0.46484,-0.37029 0.50422,-0.51998 0.26787,-0.6618 v -1.09512 l 0.0441,-1.37619 0.4234,-2.17268 0.20055,-0.60167 h 8.07792 l 0.12529,0.0616 0.10242,0.44908 v 0.45696 l 0.0236,0.92967 v 2.59204 l 0.15757,0.41756 0.27575,0.40181 0.39392,0.42544 0.37818,0.34666 0.21272,0.16545 0.53574,0.23635 0.48847,0.11818 0.65392,0.008 h 3.15142 3.58474 2.63932 l 1.52844,-0.0158 1.37087,-0.0867 0.7327,-0.0945 0.43332,-0.17333 0.46484,-0.26787 0.52785,-0.47271 0.65392,-0.81937 0.46483,-1.25269 0.24424,-1.07148 0.12606,-1.01634 0.0315,-1.64661 0.008,-3.04113 2.04842,-0.14969 1.29997,-0.10242 1.11087,-0.19696 0.89816,-0.39393 0.96118,-0.71695 0.63816,-0.63816 0.41757,-0.70907 0.17332,-0.85089 0.0788,-0.6618 0.0394,-0.51998 0.0315,-0.5121 -0.0236,-0.56726 -0.14181,-0.63029 -0.17333,-0.61452 -0.0945,-0.51211 -0.10242,-0.55938 -0.35453,-1.22117 -0.46483,-1.62298 -0.46484,-1.6545 -0.4412,-1.57571 -0.6618,-2.30842 -0.63816,-1.55995 -0.37817,-0.86664 -0.25212,-0.63816 -0.0236,-0.37029 0.24423,-0.17333 1.29997,-0.0394 0.56725,-0.11818 1.74116,-0.60664 1.86722,-0.74059 2.37932,-1.01633 2.26114,-1.38663 2.03267,-1.55207 1.08724,-1.24481 1.22906,-1.70177 0.53574,-0.96118 0.69331,-1.67026 0.53574,-1.52844 0.59089,-2.17448 0.38605,-1.81206 0.21273,-1.70177 0.012,-4.68683 v -6.06122 l -0.24512,-3.29802 -0.33426,-3.54315 -0.71308,-4.50134 -1.06963,-5.57098 -1.20333,-6.30634 -1.87185,-7.75481 -2.58494,-6.81887 -1.53759,-2.76321 -1.29246,-1.96098 -1.20334,-1.38161 -1.18104,-1.06962 -1.06963,-0.75765 -1.55987,-0.75766 -1.76043,-0.80222 -1.69359,-0.44568 -1.67129,-0.33426 -2.13925,-0.15598 h -15.5544 l -3.20888,0.28969 -3.40944,0.37882 -6.95258,1.04735 -8.24505,1.84956 -9.35924,2.80778 -7.39826,2.67406 -4.59049,2.16154 -1.40389,1.00278 -1.13648,1.31475 -1.02506,1.53759 -0.80222,2.09469 -0.89135,2.36209 -0.26741,2.3621 -0.0891,2.80777 -0.15599,2.51808 z"
       id="path240" /></g></svg>
